<?xml version="1.0" encoding="iso-8859-1"?>
<!-- Generator: Adobe Illustrator 18.1.1, SVG Export Plug-In . SVG Version: 6.00 Build 0)  -->
<svg version="1.1" id="Capa_1" xmlns="http://www.w3.org/2000/svg" xmlns:xlink="http://www.w3.org/1999/xlink" x="0px" y="0px"
	 viewBox="0 0 14.218 14.218" style="enable-background:new 0 0 14.218 14.218;" xml:space="preserve">
<g>
	<g>
		<path style="fill:#030104;" d="M0.808,6.468c0.294-0.046,3.049-0.514,3.049-0.514s0.377-0.058,0.084-0.299
			c-0.292-0.243-0.759-0.63-0.759-0.63L3.133,4.987c0.017-0.022,0.036-0.04,0.05-0.062c1.473-2.268,4.363-2.708,6.441-0.979
			c0.698,0.58,1.213,1.333,1.539,2.162l2.496-0.418c-0.47-1.524-1.344-2.92-2.595-3.96c-3.2-2.66-7.649-1.984-9.915,1.505
			C1.123,3.275,1.104,3.32,1.083,3.363L0.998,3.296c0,0-0.58-0.481-0.82-0.682c-0.239-0.2-0.168,0.211-0.168,0.211l0.563,3.424
			C0.574,6.249,0.594,6.498,0.808,6.468z"/>
		<path style="fill:#030104;" d="M14.208,11.391l-0.563-3.424c0,0-0.02-0.25-0.234-0.219c-0.294,0.045-3.049,0.514-3.049,0.514
			s-0.377,0.059-0.085,0.301c0.293,0.242,0.759,0.629,0.759,0.629l0.05,0.039c-0.017,0.021-0.035,0.039-0.051,0.061
			c-1.473,2.268-4.362,2.709-6.441,0.98C3.897,9.692,3.382,8.938,3.056,8.11L0.558,8.528c0.47,1.523,1.345,2.92,2.595,3.961
			c3.2,2.658,7.648,1.984,9.915-1.506c0.027-0.041,0.046-0.088,0.067-0.131l0.085,0.068c0,0,0.58,0.48,0.82,0.682
			C14.279,11.801,14.208,11.391,14.208,11.391z"/>
	</g>
</g>
<g>
</g>
<g>
</g>
<g>
</g>
<g>
</g>
<g>
</g>
<g>
</g>
<g>
</g>
<g>
</g>
<g>
</g>
<g>
</g>
<g>
</g>
<g>
</g>
<g>
</g>
<g>
</g>
<g>
</g>
</svg>
